# xmcd
#
# Track frame offsets:
#	150
#	13370
#	26730
#	39282
#	58907
#	71902
#	84647
#	98325
#	115947
#	126152
#
# Disc length: 1813 seconds
#
# Revision: 0
# Processed by: cddbd v1.5PL3 Copyright (c) Steve Scherf et al.
# Submitted via: dBpowerAMP V4.0
#
DISCID=8607130a
DTITLE=Various Artist - Blues Roots - Volume 3
DYEAR=2000
DGENRE=Blues
TTITLE0=Walkin' Blues - JohnnMoore's Three Blazers with Oscar Moore
TTITLE1=Rock Me Mamma - Crudup, Arthur "Big Boy"
TTITLE2=I Sold My Heart To The Junkman - Jones, Zitta with J.C. Heard and His Band
TTITLE3=Every Day I've Got The Blues - Walker, T-Bone
TTITLE4=Shake A Hand - Adams, Faye
TTITLE5=I'm Her Honey Dripper - Sykes, Roosevelt with his Original Honeydrippers
TTITLE6=Corinne Corinna - Turner, Big Joe
TTITLE7=Fannie Mae - The James Cotton Band
TTITLE8=Get Rich Quick - Richard, Little
TTITLE9=A Man Ain't A Man - Jordan, Louis and his Tympani Five
EXTD=
EXTT0=
EXTT1=
EXTT2=
EXTT3=
EXTT4=
EXTT5=
EXTT6=
EXTT7=
EXTT8=
EXTT9=
PLAYORDER=
